HIERARCHY
ROOT hip
{
  OFFSET 0.0 0.0 0.0
  CHANNELS 6 Xposition Yposition Zposition Zrotation Yrotation Xrotation
  JOINT abdomen
  {
    OFFSET 0.0 20.6881 -0.73152
    CHANNELS 3 Zrotation Xrotation Yrotation
    JOINT chest
    {
      OFFSET 0.0 11.7043 -0.48768
      CHANNELS 3 Zrotation Xrotation Yrotation
      JOINT neck
      {
        OFFSET 0.0 22.1894 -2.19456
        CHANNELS 3 Zrotation Xrotation Yrotation
        JOINT head
        {
          OFFSET -0.24384 7.07133 1.2192
          CHANNELS 3 Zrotation Xrotation Yrotation
          JOINT leftEye
          {
            OFFSET 4.14528 8.04674 8.04672
            CHANNELS 3 Zrotation Xrotation Yrotation
            End Site
            {
              OFFSET 1.0 0.0 0.0
            }
          }
          JOINT rightEye
          {
            OFFSET -3.6576 8.04674 8.04672
            CHANNELS 3 Zrotation Xrotation Yrotation
            End Site
            {
              OFFSET 1.0 0.0 0.0
            }
          }
        }
      }
      JOINT rCollar
      {
        OFFSET -2.68224 19.2634 -4.8768
        CHANNELS 3 Zrotation Xrotation Yrotation
        JOINT rShldr
        {
          OFFSET -8.77824 -1.95073 1.46304
          CHANNELS 3 Zrotation Xrotation Yrotation
          JOINT rForeArm
          {
            OFFSET -28.1742 -1.7115 0.48768
            CHANNELS 3 Zrotation Xrotation Yrotation
            JOINT rHand
            {
              OFFSET -22.5879 0.773209 7.07136
              CHANNELS 3 Zrotation Xrotation Yrotation
              JOINT rThumb1
              {
                OFFSET -1.2192 -0.487915 3.41376
                CHANNELS 3 Zrotation Xrotation Yrotation
                JOINT rThumb2
                {
                  OFFSET -3.37035 -0.52449 3.41376
                  CHANNELS 3 Zrotation Xrotation Yrotation
                  End Site
                  {
                    OFFSET -1.78271 -1.18214 1.43049
                  }
                }
              }
              JOINT rIndex1
              {
                OFFSET -7.75947 0.938293 5.60832
                CHANNELS 3 Zrotation Xrotation Yrotation
                JOINT rIndex2
                {
                  OFFSET -2.54057 -0.884171 1.56538
                  CHANNELS 3 Zrotation Xrotation Yrotation
                  End Site
                  {
                    OFFSET -1.62519 -0.234802 1.16502
                  }
                }
              }
              JOINT rMid1
              {
                OFFSET -8.24714 1.18213 3.41376
                CHANNELS 3 Zrotation Xrotation Yrotation
                JOINT rMid2
                {
                  OFFSET -3.10165 -0.590103 1.0647
                  CHANNELS 3 Zrotation Xrotation Yrotation
                  End Site
                  {
                    OFFSET -2.48547 -0.328903 0.83742
                  }
                }
              }
              JOINT rRing1
              {
                OFFSET -8.82822 0.546677 1.51678
                CHANNELS 3 Zrotation Xrotation Yrotation
                JOINT rRing2
                {
                  OFFSET -2.60934 -0.819778 -0.0198488
                  CHANNELS 3 Zrotation Xrotation Yrotation
                  End Site
                  {
                    OFFSET -2.33842 -0.294052 0.168128
                  }
                }
              }
              JOINT rPinky1
              {
                OFFSET -8.27202 -0.0477905 -0.4584
                CHANNELS 3 Zrotation Xrotation Yrotation
                JOINT rPinky2
                {
                  OFFSET -1.82734 -0.647385 -0.700984
                  CHANNELS 3 Zrotation Xrotation Yrotation
                  End Site
                  {
                    OFFSET -1.69225 -0.51767 -0.607171
                  }
                }
              }
            }
          }
        }
      }
      JOINT lCollar
      {
        OFFSET 2.68224 19.2634 -4.8768
        CHANNELS 3 Zrotation Xrotation Yrotation
        JOINT lShldr
        {
          OFFSET 8.77824 -1.95073 1.46304
          CHANNELS 3 Zrotation Xrotation Yrotation
          JOINT lForeArm
          {
            OFFSET 28.1742 -1.7115 0.48768
            CHANNELS 3 Zrotation Xrotation Yrotation
            JOINT lHand
            {
              OFFSET 22.5879 0.773209 7.07136
              CHANNELS 3 Zrotation Xrotation Yrotation
              JOINT lThumb1
              {
                OFFSET 1.2192 -0.487915 3.41376
                CHANNELS 3 Zrotation Xrotation Yrotation
                JOINT lThumb2
                {
                  OFFSET 3.37035 -0.52449 3.41376
                  CHANNELS 3 Zrotation Xrotation Yrotation
                  End Site
                  {
                    OFFSET 1.78271 -1.18214 1.43049
                  }
                }
              }
              JOINT lIndex1
              {
                OFFSET 7.75947 0.938293 5.60832
                CHANNELS 3 Zrotation Xrotation Yrotation
                JOINT lIndex2
                {
                  OFFSET 2.54057 -0.884171 1.56538
                  CHANNELS 3 Zrotation Xrotation Yrotation
                  End Site
                  {
                    OFFSET 1.62519 -0.234802 1.16502
                  }
                }
              }
              JOINT lMid1
              {
                OFFSET 8.24714 1.18213 3.41376
                CHANNELS 3 Zrotation Xrotation Yrotation
                JOINT lMid2
                {
                  OFFSET 3.10165 -0.590103 1.0647
                  CHANNELS 3 Zrotation Xrotation Yrotation
                  End Site
                  {
                    OFFSET 2.48547 -0.328903 0.83742
                  }
                }
              }
              JOINT lRing1
              {
                OFFSET 8.82822 0.546677 1.51678
                CHANNELS 3 Zrotation Xrotation Yrotation
                JOINT lRing2
                {
                  OFFSET 2.60934 -0.819778 -0.0198488
                  CHANNELS 3 Zrotation Xrotation Yrotation
                  End Site
                  {
                    OFFSET 2.33842 -0.294052 0.168128
                  }
                }
              }
              JOINT lPinky1
              {
                OFFSET 8.27202 -0.0477905 -0.4584
                CHANNELS 3 Zrotation Xrotation Yrotation
                JOINT lPinky2
                {
                  OFFSET 1.82734 -0.647385 -0.700984
                  CHANNELS 3 Zrotation Xrotation Yrotation
                  End Site
                  {
                    OFFSET 1.69225 -0.51767 -0.607171
                  }
                }
              }
            }
          }
        }
      }
    }
  }
  JOINT rButtock
  {
    OFFSET -8.77824 4.35084 1.2192
    CHANNELS 3 Zrotation Xrotation Yrotation
    JOINT rThigh
    {
      OFFSET 0.0 -1.70687 -2.19456
      CHANNELS 3 Zrotation Xrotation Yrotation
      JOINT rShin
      {
        OFFSET 0.0 -36.8199 0.73152
        CHANNELS 3 Zrotation Xrotation Yrotation
        JOINT rFoot
        {
          OFFSET 0.73152 -45.1104 -5.12064
          CHANNELS 3 Zrotation Xrotation Yrotation
          End Site
          {
            OFFSET -1.1221 -3.69964 12.103
          }
        }
      }
    }
  }
  JOINT lButtock
  {
    OFFSET 8.77824 4.35084 1.2192
    CHANNELS 3 Zrotation Xrotation Yrotation
    JOINT lThigh
    {
      OFFSET 0.0 -1.70687 -2.19456
      CHANNELS 3 Zrotation Xrotation Yrotation
      JOINT lShin
      {
        OFFSET 0.0 -36.8199 0.73152
        CHANNELS 3 Zrotation Xrotation Yrotation
        JOINT lFoot
        {
          OFFSET -0.73152 -45.1104 -5.12064
          CHANNELS 3 Zrotation Xrotation Yrotation
          End Site
          {
            OFFSET 1.1221 -3.69964 12.103
          }
        }
      }
    }
  }
}
MOTION
Frames: 4
Frame Time: 0.00833333
3.118816 78.867 29.471000000000004 -0.8902 3.381 13.1288 5.75879 6.02244 8.39391 -0.149372 -5.31493 2.42185 2.83904 -6.46124 -1.66312 -9.18003 -5.11344 -4.83444 -0.0 0.0 0.0 -0.0 0.0 0.0 5.98943e-14 7.75309e-14 -2.97866e-14 74.2181 26.1059 6.40603 -13.8362 -6.82204 25.2268 -0.0617617 -7.06722 -0.998361 -5.04252e-10 1.42373e-09 -1.20401e-09 -8.67961e-10 2.46019e-09 -2.08388e-09 -5.04247e-10 1.42372e-09 -1.20402e-09 7.73091 5.47488 0.417314 -5.04243e-10 1.42372e-09 -1.20401e-09 2.90554 0.965183 0.102902 -5.04239e-10 1.42372e-09 -1.20401e-09 10.2786 0.731801 0.0259123 -5.04259e-10 1.42372e-09 -1.20401e-09 2.22167 -0.733487 -0.20892 5.98277e-14 7.75204e-14 -3.00196e-14 -83.6698 17.4083 8.32745 11.882 -5.36576 -21.3823 0.0207322 -4.12148 0.580239 -9.32888e-10 5.04466e-10 1.48518e-09 -1.61325e-09 8.70503e-10 2.56673e-09 -9.32898e-10 5.04466e-10 1.48518e-09 -7.73091 5.47488 -0.417314 -9.32888e-10 5.04465e-10 1.48517e-09 -2.90554 0.965183 -0.102902 -9.32895e-10 5.04466e-10 1.48518e-09 -10.2786 0.731801 -0.0259123 -9.32885e-10 5.04469e-10 1.48517e-09 -2.22167 -0.733487 0.20892 -2.03217e-16 0.0 -3.88251e-19 3.04732 10.0542 -1.73083 0.0437508 11.4766 0.654733 -5.46543 -9.14038 -23.6169 2.03217e-16 0.0 3.88251e-19 7.69014 -51.6558 5.89716 0.452592 45.3293 -0.905321 3.11744 -10.4381 8.86091
3.4841916 78.93 30.570999999999998 -0.4501 3.3782 13.2827 5.31331 5.73867 8.37625 -0.161318 -5.33246 2.40834 2.95663 -6.44537 -1.67153 -9.37028 -4.88057 -4.88536 -0.0 0.0 0.0 -0.0 0.0 0.0 -1.05721e-15 2.36436e-13 -2.11954e-14 74.3177 26.0502 6.10999 -13.9475 -6.91205 25.4486 -0.0661456 -7.31804 -1.03417 -1.46322e-10 1.82101e-09 -1.49604e-09 -2.51606e-10 3.14783e-09 -2.58551e-09 -1.46315e-10 1.821e-09 -1.49605e-09 7.73091 5.47488 0.417314 -1.46308e-10 1.821e-09 -1.49604e-09 2.90554 0.965183 0.102902 -1.46307e-10 1.821e-09 -1.49605e-09 10.2786 0.731801 0.0259123 -1.46326e-10 1.821e-09 -1.49604e-09 2.22167 -0.733487 -0.20892 -1.08594e-15 2.36423e-13 -2.14101e-14 -83.7132 16.4062 8.67253 11.736 -5.26475 -21.1007 0.016535 -3.6834 0.518379 -5.75021e-11 6.82942e-10 2.89098e-09 -1.01605e-10 1.17703e-09 4.99895e-09 -5.75143e-11 6.8294e-10 2.89099e-09 -7.73091 5.47488 -0.417314 -5.75019e-11 6.82941e-10 2.89098e-09 -2.90554 0.965183 -0.102902 -5.75071e-11 6.82942e-10 2.89098e-09 -10.2786 0.731801 -0.0259123 -5.74987e-11 6.82946e-10 2.89098e-09 -2.22167 -0.733487 0.20892 -2.03217e-16 0.0 -3.88251e-19 2.31503 9.82229 -1.81713 0.0395856 12.7471 0.656425 -5.10431 -8.32442 -23.2158 2.03217e-16 0.0 3.88251e-19 6.50457 -50.8994 5.13923 0.449267 45.2305 -0.904899 3.26234 -10.9766 9.09077
3.8562179999999997 79.0177 31.68100000000001 -0.008 3.4345 13.4218 4.87885 5.49723 8.3051 -0.158925 -5.3541 2.3802 3.04526 -6.42218 -1.6735 -9.50473 -4.69031 -4.91261 -0.0 0.0 0.0 -0.0 0.0 0.0 -3.97601e-14 3.29194e-13 -2.85256e-14 74.4284 25.8995 5.78726 -14.0257 -6.97516 25.6057 -0.0704628 -7.55194 -1.06761 1.96644e-10 1.94422e-09 -1.75014e-09 3.40555e-10 3.36045e-09 -3.02254e-09 1.96651e-10 1.94421e-09 -1.75015e-09 7.73091 5.47488 0.417314 1.96659e-10 1.94421e-09 -1.75014e-09 2.90554 0.965183 0.102902 1.9666e-10 1.94421e-09 -1.75014e-09 10.2786 0.731801 0.0259123 1.9664e-10 1.94421e-09 -1.75014e-09 2.22167 -0.733487 -0.20892 -3.97563e-14 3.2918e-13 -2.87244e-14 -83.7558 15.3725 8.98811 11.5755 -5.15532 -20.7912 0.0131804 -3.27597 0.460915 5.51692e-10 1.01029e-09 3.67775e-09 9.50823e-10 1.74251e-09 6.36015e-09 5.5168e-10 1.01029e-09 3.67776e-09 -7.73091 5.47488 -0.417314 5.51693e-10 1.01029e-09 3.67775e-09 -2.90554 0.965183 -0.102902 5.51689e-10 1.01029e-09 3.67775e-09 -10.2786 0.731801 -0.0259123 5.51696e-10 1.0103e-09 3.67775e-09 -2.22167 -0.733487 0.20892 -2.03217e-16 0.0 -3.88251e-19 1.59666 9.3133 -1.99808 0.0277246 14.4448 0.655088 -4.66708 -7.30391 -22.7445 2.03217e-16 0.0 3.88251e-19 5.40272 -50.0751 4.4666 0.44466 45.0502 -0.894768 3.36912 -11.4572 9.22585
4.221086 79.1276 32.79900000000001 0.4005 3.5269 13.5421 4.47632 5.29269 8.16173 -0.145025 -5.38187 2.33255 3.08758 -6.38562 -1.66954 -9.55383 -4.54939 -4.90919 -0.0 0.0 0.0 -0.0 0.0 0.0 -4.77897e-14 3.28733e-13 -6.71057e-14 74.5542 25.6275 5.43089 -14.0666 -7.00777 25.6892 -0.0745637 -7.76361 -1.09791 5.94078e-10 1.62333e-09 -2.00994e-09 1.02966e-09 2.80307e-09 -3.47061e-09 5.94085e-10 1.62332e-09 -2.00995e-09 7.73091 5.47488 0.417314 5.94089e-10 1.62332e-09 -2.00994e-09 2.90554 0.965183 0.102902 5.94093e-10 1.62332e-09 -2.00994e-09 10.2786 0.731801 0.0259123 5.94075e-10 1.62332e-09 -2.00994e-09 2.22167 -0.733487 -0.20892 -4.77543e-14 3.28723e-13 -6.72898e-14 -83.8016 14.2735 9.27613 11.3958 -5.03421 -20.4459 0.0104794 -2.90702 0.408919 8.35835e-10 1.67027e-09 3.57346e-09 1.44289e-09 2.88569e-09 6.17951e-09 8.35824e-10 1.67027e-09 3.57347e-09 -7.73091 5.47488 -0.417314 8.35836e-10 1.67027e-09 3.57345e-09 -2.90554 0.965183 -0.102902 8.35831e-10 1.67027e-09 3.57346e-09 -10.2786 0.731801 -0.0259123 8.35839e-10 1.67028e-09 3.57345e-09 -2.22167 -0.733487 0.20892 -2.03217e-16 0.0 -3.88251e-19 0.901778 8.50835 -2.33308 0.0103912 16.6288 0.650917 -4.19877 -6.14548 -22.2131 2.03217e-16 0.0 3.88251e-19 4.38 -49.1904 3.86304 0.439531 44.7856 -0.874747 3.43082 -11.906 9.24133
